<svg width="58" height="56" viewBox="0 0 58 56" fill="none" xmlns="http://www.w3.org/2000/svg">
<mask id="mask0_42_86" style="mask-type:luminance" maskUnits="userSpaceOnUse" x="3" y="4" width="51" height="52">
<path d="M53.9996 4.625H3.09961V55.725H53.9996V4.625Z" fill="white"/>
</mask>
<g mask="url(#mask0_42_86)">
<path fill-rule="evenodd" clip-rule="evenodd" d="M52.7995 55.625C52.4995 55.625 52.1995 55.425 52.1995 55.025V33.725C52.1995 33.025 53.2995 33.025 53.2995 33.725V55.025C53.2995 55.425 53.0995 55.625 52.7995 55.625ZM45.9995 55.625C45.6995 55.625 45.3995 55.425 45.3995 55.025V33.725C45.3995 33.025 46.4995 33.025 46.4995 33.725V55.025C46.5995 55.425 46.2995 55.625 45.9995 55.625ZM11.7995 55.625C11.4995 55.625 11.1995 55.425 11.1995 55.025V33.725C11.1995 33.025 12.2995 33.025 12.2995 33.725V55.025C12.3995 55.425 12.1995 55.625 11.7995 55.625ZM5.09949 55.625C4.79949 55.625 4.49951 55.425 4.49951 55.025V33.725C4.49951 33.025 5.59949 33.025 5.59949 33.725V55.025C5.69949 55.425 5.39949 55.625 5.09949 55.625ZM45.8995 26.725C45.5995 26.725 45.3995 26.525 45.2995 26.225C44.1995 18.125 37.1995 12.125 28.8995 12.125C20.6995 12.125 13.5995 18.225 12.4995 26.225C12.3995 26.925 11.2995 26.825 11.3995 26.125C12.5995 17.525 20.0995 11.025 28.8995 11.025C37.6995 11.025 45.1995 17.525 46.3995 26.125C46.4995 26.425 46.1995 26.725 45.8995 26.725ZM5.19949 26.625C4.89949 26.625 4.59949 26.325 4.59949 26.025C5.59949 15.925 12.8995 7.52498 22.8995 5.02498C23.5995 4.82498 23.8995 5.92499 23.1995 6.12499C13.6995 8.52499 6.69949 16.525 5.69949 26.125C5.79949 26.425 5.49949 26.625 5.19949 26.625ZM52.5995 26.625C52.2995 26.625 52.0995 26.425 51.9995 26.125C51.0995 16.525 43.9995 8.52499 34.4995 6.12499C33.7995 5.92499 34.0995 4.82498 34.7995 5.02498C44.7995 7.52498 52.0995 15.925 53.0995 26.025C53.1995 26.325 52.9995 26.625 52.5995 26.625Z" fill="#221F1F"/>
</g>
<path d="M57.8 53.425H0V55.725H57.8V53.425Z" fill="#221F1F"/>
<mask id="mask1_42_86" style="mask-type:luminance" maskUnits="userSpaceOnUse" x="0" y="53" width="58" height="3">
<path d="M57.8 53.425H0V55.725H57.8V53.425Z" fill="white"/>
</mask>
<g mask="url(#mask1_42_86)">
<path fill-rule="evenodd" clip-rule="evenodd" d="M57.0999 55.625H0.799902C0.0999023 55.625 0.0999023 54.525 0.799902 54.525H57.0999C57.8999 54.525 57.8999 55.625 57.0999 55.625Z" fill="#221F1F"/>
</g>
<path fill-rule="evenodd" clip-rule="evenodd" d="M43.2999 31.125C43.1999 31.125 43.1999 31.125 43.0999 31.125C34.3999 28.525 28.3999 20.625 28.3999 11.625C28.3999 10.925 29.4999 10.925 29.4999 11.625C29.4999 20.125 35.1999 27.725 43.3999 30.125C44.0999 30.225 43.8999 31.125 43.2999 31.125Z" fill="#221F1F"/>
<path fill-rule="evenodd" clip-rule="evenodd" d="M14.5999 31.125C13.9999 31.125 13.7999 30.225 14.3999 30.025C22.5999 27.625 28.2999 20.025 28.2999 11.525C28.2999 10.825 29.3999 10.825 29.3999 11.525C29.3999 16.025 27.9999 20.225 25.1999 23.825C22.5999 27.225 18.7999 29.825 14.5999 31.125C14.6999 31.125 14.6999 31.125 14.5999 31.125Z" fill="#221F1F"/>
<path fill-rule="evenodd" clip-rule="evenodd" d="M28.9 12.125C28.8 12.125 28.6 12.025 28.5 11.925L23.2 6.72498C21.6 5.22498 21.6 2.625 23.2 1.125C24.8 -0.375 27.3 -0.375 28.9 1.125C30.5 -0.375 33 -0.375 34.6 1.125C36.2 2.625 36.2 5.22498 34.6 6.72498L29.3 11.925C29.2 12.025 29.1 12.125 28.9 12.125ZM26.1 1.02499C23.5 1.02499 22.2 4.12499 24 5.92499L28.9 10.725L33.8 5.92499C35.6 4.12499 34.3 1.02499 31.7 1.02499C30.9 1.02499 30.2 1.32498 29.6 1.82498C29.3 2.12498 29.1 2.32498 28.8 2.32498C28.5 2.32498 28.3 2.02498 28 1.82498C27.6 1.32498 26.9 1.02499 26.1 1.02499Z" fill="#221F1F"/>
<path fill-rule="evenodd" clip-rule="evenodd" d="M8.49962 37.625C8.39962 37.625 8.1996 37.525 8.0996 37.425L2.79961 32.225C1.19961 30.725 1.19961 28.125 2.79961 26.625C4.39961 25.125 6.89962 25.125 8.49962 26.625C10.9996 24.125 15.2996 25.925 15.2996 29.425C15.2996 30.525 14.8996 31.525 14.0996 32.225L8.79961 37.425C8.79961 37.625 8.59962 37.625 8.49962 37.625ZM5.5996 26.625C2.9996 26.625 1.69962 29.725 3.49962 31.525L8.39962 36.325L13.2996 31.525C15.0996 29.725 13.8996 26.625 11.1996 26.625C10.3996 26.625 9.6996 26.925 9.0996 27.425C8.7996 27.725 8.59961 27.925 8.29961 27.925C7.99961 27.925 7.79962 27.625 7.49962 27.425C7.09962 26.925 6.3996 26.625 5.5996 26.625Z" fill="#221F1F"/>
<path fill-rule="evenodd" clip-rule="evenodd" d="M49.4 37.625C49.3 37.625 49.1 37.525 49 37.425L43.7 32.225C42.1 30.725 42.1 28.125 43.7 26.625C45.3 25.125 47.8 25.125 49.4 26.625C51.9 24.125 56.3 25.925 56.3 29.425C56.3 30.525 55.9 31.525 55.1 32.225L49.8 37.425C49.7 37.625 49.5 37.625 49.4 37.625ZM46.6 26.625C44 26.625 42.7 29.725 44.5 31.525L49.4 36.325L54.3 31.525C56.1 29.725 54.9 26.625 52.2 26.625C51.4 26.625 50.7 26.925 50.1 27.425C49.8 27.725 49.6 27.925 49.3 27.925C49 27.925 48.8 27.625 48.5 27.425C48.1 26.925 47.3 26.625 46.6 26.625Z" fill="#221F1F"/>
</svg>
