<svg width="43" height="45" viewBox="0 0 43 45" fill="none" xmlns="http://www.w3.org/2000/svg">
<path d="M41.4 41.5L39.4999 42L35.9 29.2C37.5 28.3 38.4999 26.4 38.9999 23.6C39.4999 20.6 39.1999 16.9 38.0999 13.2C37.4999 11.2 36.8 9.29997 35.9 7.49997C35.7 7.09997 35.2 6.89997 34.8 6.99997L25.0999 9.69998C25.4999 8.09998 25.7 6.59997 25.8 4.99997C25.8 4.59997 25.4999 4.19997 25.0999 3.99997L13.9 0.899995C13.5 0.799995 13 0.999995 12.8 1.4C11.9 3.1 11.0999 5.10001 10.5999 7.10001C8.49995 14.5 9.49996 21.2 12.8 23.1L9.19995 35.9L7.29996 35.4C6.79996 35.3 6.29995 35.6 6.09995 36.1C5.99995 36.6 6.29995 37.1 6.69995 37.3L12.3 38.9H12.5999C12.9999 38.9 13.3999 38.6 13.4999 38.2C13.5999 37.7 13.3 37.2 12.9 37L10.9999 36.5L14.5999 23.7H14.7C17.8 23.7 21.1 20.2 23.4 15C23.6 15.8 23.7 16.5 23.9 17.3C26 24.7 30.1999 29.8 33.9999 29.8H34.0999L37.7 42.6L35.8 43.1C35.3 43.2 35 43.8 35.2 44.3C35.3 44.7 35.6999 45 36.0999 45H36.4L39.2 44.2L41.9999 43.4C42.4999 43.3 42.8 42.7 42.7 42.2C42.4 41.6 41.9 41.4 41.4 41.5ZM36.3 13.7L25.0999 13.8C24.9999 13.1 24.9 12.5 24.8 11.8L34.4999 9.10001C35.1999 10.6 35.8 12.1 36.3 13.7ZM14.0999 2.99997L23.8 5.69998C23.7 6.39998 23.5999 6.99998 23.4999 7.69998H12.3V7.60001C12.9 6.00001 13.3999 4.49997 14.0999 2.99997ZM14.0999 21.7C11.7999 21.1 10.5 16.1 11.9 9.60001H23.2C23.1 9.90001 23 10.3 22.9 10.6C20.9 18 16.5999 22.4 14.0999 21.7ZM25.7 16.7C25.6 16.4 25.5 16 25.4 15.7H36.7C37.3 18.5 37.3999 21.2 37.0999 23.4C36.6999 25.9 35.7999 27.5 34.4999 27.8C32.0999 28.5 27.8 24.1 25.7 16.7Z" fill="black"/>
<path d="M35.9998 4.70001H37.9998V6.70001C37.9998 7.20001 38.3998 7.60004 38.8998 7.60004C39.3998 7.60004 39.7998 7.20001 39.7998 6.70001V4.70001H41.7998C42.2998 4.70001 42.6998 4.30005 42.6998 3.80005C42.6998 3.30005 42.2998 2.90002 41.7998 2.90002H39.7998V0.900024C39.7998 0.400024 39.3998 0 38.8998 0C38.3998 0 37.9998 0.400024 37.9998 0.900024V2.90002H35.9998C35.4998 2.90002 35.0998 3.30005 35.0998 3.80005C34.9998 4.20005 35.3998 4.70001 35.9998 4.70001Z" fill="black"/>
<path d="M6.70001 11.8C7.20001 11.8 7.60001 11.4 7.60001 10.9C7.60001 10.4 7.20001 10 6.70001 10H4.70001V8C4.70001 7.5 4.30002 7.10004 3.80002 7.10004C3.30002 7.10004 2.90002 7.5 2.90002 8V10H0.900024C0.400024 10 0 10.4 0 10.9C0 11.4 0.400024 11.8 0.900024 11.8H2.90002V13.8C2.90002 14.3 3.30002 14.7 3.80002 14.7C4.30002 14.7 4.70001 14.3 4.70001 13.8V11.8H6.70001Z" fill="black"/>
</svg>
